<svg width="38" height="38" viewBox="0 0 38 38" fill="none" xmlns="http://www.w3.org/2000/svg">
<path d="M11.1314 0.134939C9.10945 0.229933 7.72879 0.552912 6.52387 1.0263C5.25675 1.50626 4.10922 2.2561 3.16087 3.22382C2.19708 4.17473 1.45154 5.32377 0.975869 6.59135C0.508786 7.80094 0.190536 9.18468 0.101869 11.2049C0.0132025 13.2251 -0.00738084 13.8774 0.00211916 19.0371C0.0116192 24.1969 0.0353692 24.8428 0.133536 26.8694C0.230119 28.8911 0.551536 30.2717 1.02495 31.4781C1.51262 32.7273 2.16495 33.7849 3.22262 34.8393C4.17451 35.8034 5.32474 36.549 6.59354 37.0242C7.80162 37.4912 9.18387 37.8095 11.2058 37.8981C13.2293 37.9868 13.88 38.0074 19.0385 37.9979C24.197 37.9884 24.8462 37.9646 26.8713 37.8681C28.898 37.7731 30.2707 37.4485 31.4788 36.9767C32.7453 36.4965 33.8923 35.7467 34.8402 34.7792C35.8044 33.8273 36.5499 32.6772 37.0252 31.4085C37.4923 30.2005 37.8105 28.8183 37.8976 26.7981C37.9863 24.7716 38.0084 24.1225 37.9974 18.9643C37.9879 13.8061 37.9657 13.1586 37.8691 11.1321C37.7741 9.10552 37.4511 7.73128 36.9761 6.52327C36.4964 5.25695 35.7471 4.11006 34.78 3.16207C33.8286 2.19816 32.6789 1.45265 31.4107 0.977217C30.201 0.511748 28.8204 0.191935 26.7969 0.106441C24.775 0.0161968 24.1242 -0.00755162 18.9641 0.00194776C13.804 0.0114471 13.158 0.0351956 11.1314 0.134939ZM11.353 34.4799C9.50054 34.4008 8.49512 34.0921 7.82537 33.834C6.9988 33.532 6.2509 33.0477 5.6372 32.417C5.00442 31.806 4.51737 31.0603 4.2122 30.2353C3.95095 29.5656 3.63745 28.5602 3.55195 26.7079C3.45695 24.7067 3.43795 24.105 3.42529 19.0324C3.41579 13.9597 3.43479 13.3597 3.52187 11.3569C3.60104 9.50608 3.91137 8.49914 4.16787 7.82944C4.50987 6.94124 4.92312 6.30954 5.58495 5.64141C6.19648 5.00847 6.94276 4.52144 7.76837 4.21651C8.43812 3.95527 9.44195 3.64496 11.2945 3.5563C13.2974 3.4613 13.8975 3.44231 18.9705 3.42964C24.0419 3.42014 24.6435 3.43914 26.6496 3.5278C28.499 3.60696 29.506 3.91411 30.1757 4.17376C31.0624 4.51574 31.6957 4.92579 32.3639 5.59075C33.032 6.25571 33.4421 6.88425 33.7889 7.77244C34.0501 8.44056 34.362 9.44433 34.4491 11.2983C34.5441 13.3011 34.5663 13.9027 34.5758 18.9738C34.5837 24.0449 34.5663 24.6465 34.4792 26.6493C34.3984 28.5017 34.0913 29.507 33.8332 30.1799C33.4912 31.0665 33.078 31.6998 32.4145 32.3647C31.8035 32.9975 31.0577 33.4845 30.2327 33.7897C29.5645 34.0509 28.5575 34.3628 26.7082 34.4514C24.7037 34.5464 24.1036 34.5654 19.029 34.5765C13.9545 34.5876 13.3575 34.5654 11.353 34.4799ZM26.8428 8.84587C26.8434 9.29685 26.9778 9.73751 27.2289 10.1121C27.48 10.4867 27.8366 10.7784 28.2536 10.9504C28.6705 11.1223 29.1291 11.1667 29.5713 11.078C30.0135 10.9893 30.4194 10.7714 30.7378 10.452C31.0561 10.1326 31.2726 9.72587 31.3598 9.2834C31.447 8.84092 31.4009 8.38254 31.2276 7.96622C31.0542 7.5499 30.7612 7.19435 30.3857 6.94455C30.0102 6.69475 29.569 6.56191 29.118 6.56285C28.5136 6.56411 27.9344 6.8053 27.5078 7.2334C27.0811 7.66151 26.8419 8.24149 26.8428 8.84587ZM9.24562 19.0197C9.25066 21.6069 10.2833 24.0861 12.1164 25.912C13.9495 27.7379 16.433 28.7608 19.0203 28.7558C21.6077 28.7507 24.0871 27.7181 25.9131 25.8851C27.7391 24.0522 28.7621 21.5689 28.757 18.9817C28.7197 16.4158 27.6729 13.968 25.8434 12.1685C24.0138 10.3689 21.5489 9.36268 18.9826 9.36768C16.4163 9.37268 13.9553 10.3885 12.1327 12.1952C10.3102 14.0018 9.27293 16.4537 9.24562 19.0197ZM12.6672 19.0134C12.6647 17.7608 13.0337 16.5357 13.7275 15.4929C14.4214 14.45 15.4089 13.6364 16.5652 13.1547C17.7215 12.6731 18.9946 12.5451 20.2237 12.787C21.4527 13.0289 22.5824 13.6298 23.4699 14.5137C24.3574 15.3976 24.9629 16.5248 25.2097 17.7528C25.4565 18.9808 25.3336 20.2544 24.8566 21.4125C24.3796 22.5707 23.5698 23.5613 22.5297 24.2593C21.4896 24.9572 20.2658 25.3311 19.0132 25.3336C18.1815 25.3353 17.3576 25.1731 16.5886 24.8564C15.8195 24.5397 15.1204 24.0746 14.5311 23.4877C13.9419 22.9008 13.474 22.2036 13.1541 21.4359C12.8343 20.6682 12.6689 19.845 12.6672 19.0134Z" fill="white"/>
</svg>
