<svg width="17" height="23" viewBox="0 0 17 23" fill="none" xmlns="http://www.w3.org/2000/svg">
<path d="M15.3343 15.6844L12.9306 15.3131C12.648 15.2682 12.3615 15.3106 12.0927 15.437C11.8239 15.5634 11.5797 15.7705 11.3786 16.0429L9.63731 18.3988C6.951 16.5499 4.76746 13.5957 3.40087 9.96122L5.15162 7.59255C5.55855 7.04199 5.75728 6.27378 5.69104 5.49275L5.41659 2.26624C5.36314 1.64154 5.14165 1.06529 4.79433 0.647345C4.44702 0.229397 3.99818 -0.00102438 3.53336 3.42363e-06H1.89618C0.826801 3.42363e-06 -0.0627681 1.20354 0.00347639 2.65035C0.505041 13.5846 6.96861 22.3167 15.041 22.9953C16.1103 23.0849 16.9999 21.8814 16.9999 20.4346V18.2195C17.0094 16.9264 16.2901 15.8381 15.3343 15.6844Z" fill="white"/>
</svg>
