<svg width="86" height="50" viewBox="0 0 86 50" fill="none" xmlns="http://www.w3.org/2000/svg">
<g id="Capa 1">
<path id="Vector" d="M79.0423 7.96251H6.95773V34.3422H79.0423V7.96251Z" fill="white"/>
<g id="Group">
<path id="Vector_2" fill-rule="evenodd" clip-rule="evenodd" d="M42.8642 48.9587C29.1786 48.9587 15.3467 46.6366 1.7551 42.0618L1.0447 41.8223V6.75113L1.82127 6.54634C15.6462 2.89483 29.5651 1.04131 43.188 1.04131C56.811 1.04131 70.5941 2.89483 84.1822 6.54634L84.9553 6.7546V41.8258L84.2414 42.0618C70.4687 46.6366 56.5463 48.9587 42.8642 48.9587ZM11.6972 26.6053C10.6386 26.6053 9.77494 27.4662 9.77494 28.5213C9.77494 29.5765 10.6386 30.4373 11.6972 30.4373C12.1046 30.4373 12.4947 30.3124 12.822 30.0729L13.0971 29.875H24.9545C25.2644 29.875 25.5848 29.8646 25.9052 29.8507C26.1733 29.8369 26.4414 29.7917 26.7096 29.7188C26.9464 29.6564 27.1727 29.5522 27.3956 29.4099C27.6045 29.2746 27.81 29.0732 28.012 28.806C28.3463 28.3617 28.5448 27.8896 28.6144 27.369C28.7015 26.7199 28.7433 26.1263 28.7433 25.6057C28.7433 25.3037 28.7293 24.967 28.705 24.606C28.6806 24.2693 28.6318 23.9222 28.5587 23.5751C28.4925 23.2662 28.3881 22.9573 28.2418 22.6623C28.106 22.3881 27.9389 22.152 27.7229 21.9368C27.4687 21.6834 27.1449 21.4682 26.7583 21.3016C26.3022 21.1038 25.8843 20.9545 25.5186 20.8608L18.9927 19.1253C18.5922 19.0246 18.1778 18.8893 17.7739 18.7261C17.0182 18.4172 16.5864 17.8167 16.5864 17.0739C16.5864 16.4665 16.8824 15.9528 17.4013 15.6543C17.5824 15.5432 17.7948 15.4738 18.0629 15.4356C18.1883 15.4183 18.4007 15.3974 18.9544 15.3974H32.7619V27.8584C32.7619 28.2402 32.7932 28.6012 32.8559 28.9275C32.8838 29.0698 33.0335 29.2641 33.2703 29.462C33.4967 29.6529 33.7126 29.764 33.9146 29.7987C34.2523 29.8542 34.6006 29.882 34.9488 29.882H53.346C53.656 29.882 53.9763 29.8716 54.2967 29.8577C54.5649 29.8438 54.833 29.7987 55.1011 29.7258C55.3379 29.6633 55.5643 29.5592 55.7872 29.4169C55.9961 29.2815 56.2016 29.0802 56.4035 28.8129C56.7378 28.3686 56.9363 27.8966 57.006 27.3759C57.093 26.7268 57.1348 26.1333 57.1348 25.6126C57.1348 25.3072 57.1209 24.9705 57.0965 24.613C57.0722 24.2763 57.0234 23.9292 56.9503 23.5821C56.8841 23.2732 56.7796 22.9642 56.6334 22.6692C56.4976 22.395 56.3304 22.159 56.1145 21.9438C55.8603 21.6904 55.533 21.4752 55.1499 21.3086C54.6937 21.1107 54.2758 20.9615 53.9102 20.8678L47.3843 19.1322C46.9838 19.0316 46.5694 18.8962 46.1655 18.7331C45.4098 18.4242 44.978 17.8237 44.978 17.0809C44.978 16.4734 45.274 15.9597 45.7928 15.6612C45.9739 15.5502 46.1863 15.4807 46.4545 15.4426C46.5798 15.4252 46.7958 15.4044 47.3494 15.4044H61.1569V27.8445C61.1569 28.2367 61.1883 28.6047 61.251 28.9344C61.2788 29.0767 61.4286 29.2711 61.6654 29.4655C61.8917 29.6598 62.1076 29.7709 62.3096 29.8022C62.6474 29.8577 62.9956 29.8855 63.3439 29.8855H76.2216V27.2891H67.8187C67.6028 27.2891 67.3764 27.2857 67.1396 27.2753C66.6799 27.2544 66.2655 27.0878 65.9417 26.7824C65.7676 26.6366 65.6213 26.4457 65.5064 26.2201C65.3741 25.9597 65.3114 25.6543 65.3114 25.2864V22.3638H75.8629V20.2603H65.3114V17.5495C65.3114 17.369 65.3288 17.1642 65.3636 16.9281C65.4263 16.5012 65.6387 16.1229 65.973 15.8313C66.1646 15.6716 66.3665 15.5571 66.5964 15.4738L66.7705 15.4113H76.0544V15.3002H76.138V12.7039H44.4243C43.7522 12.7039 43.2124 12.7976 42.8224 12.9781C42.401 13.1725 42.0737 13.3842 41.8508 13.6099C41.4329 14.0264 41.1892 14.4637 41.1056 14.9497C40.9976 15.5849 40.9419 16.1854 40.9419 16.7303C40.9419 17.3898 40.9976 18.0875 41.1091 18.8025C41.2031 19.4065 41.4225 19.9271 41.7777 20.3992C41.9205 20.5797 42.1468 20.7983 42.4324 21.0344C42.6622 21.2218 42.993 21.3711 43.4144 21.4787L50.9223 23.5751C51.2949 23.6862 51.6327 23.8112 51.9357 23.95C52.566 24.2416 52.9282 24.8212 52.9282 25.5432C52.9282 25.8417 52.8411 26.2825 52.4302 26.6921C51.9879 27.1329 51.3298 27.1885 50.8074 27.1885H36.9198V14.7484C36.9198 14.3561 36.8885 13.9882 36.8258 13.6585C36.7979 13.5161 36.6482 13.3218 36.4114 13.1274C36.185 12.933 35.9691 12.8219 35.7672 12.7907C35.4329 12.7352 35.0916 12.7074 34.7503 12.7074H16.0327C15.3606 12.7074 14.8209 12.8011 14.4308 12.9816C14.0095 13.176 13.6821 13.3877 13.4593 13.6133C13.0414 14.0299 12.7976 14.4672 12.714 14.9531C12.6061 15.5883 12.5504 16.1888 12.5504 16.7338C12.5504 17.3933 12.6061 18.0909 12.7175 18.806C12.8115 19.4099 13.0309 19.9306 13.3861 20.4026C13.5289 20.5831 13.7553 20.8018 14.0408 21.0378C14.2706 21.2253 14.6015 21.3745 15.0228 21.4821L22.5308 23.5786C22.9069 23.6897 23.2412 23.8146 23.5441 23.9535C24.1744 24.2451 24.5366 24.8247 24.5366 25.5467C24.5366 25.8452 24.4495 26.286 24.0386 26.6956C23.5964 27.1364 22.9382 27.1919 22.4159 27.1919H13.0971L12.822 26.9941C12.4947 26.7581 12.1046 26.6296 11.6972 26.6296V26.6053Z" fill="#00408C"/>
<path id="Vector_3" d="M43.188 2.08261C57.3124 2.08261 70.8657 4.04373 83.9106 7.55293V41.076C70.2285 45.623 56.5428 47.9174 42.8607 47.9174C29.1786 47.9174 15.6775 45.6508 2.08592 41.076V7.55293C16.3183 3.79382 30.0004 2.08261 43.188 2.08261ZM37.9645 26.1263V14.7275C37.9645 14.2694 37.9262 13.8424 37.8531 13.4467C37.78 13.051 37.5223 12.6727 37.08 12.3048C36.7109 11.9924 36.3313 11.8049 35.9343 11.739C35.5443 11.6765 35.1508 11.6453 34.7503 11.6418H16.0327C15.2039 11.6418 14.5214 11.7667 13.9886 12.0132C13.4558 12.2596 13.0309 12.5408 12.7175 12.8532C12.1464 13.4224 11.8017 14.0541 11.6833 14.7518C11.5649 15.4495 11.5022 16.102 11.5022 16.706C11.5022 17.421 11.5614 18.1638 11.6833 18.9379C11.8017 19.7084 12.0942 20.3957 12.5539 21.0031C12.7558 21.26 13.0344 21.5307 13.3827 21.8153C13.7309 22.1 14.194 22.3152 14.7651 22.4609L22.2522 24.554C22.5656 24.6442 22.8512 24.7518 23.1088 24.8698C23.3665 24.9879 23.4954 25.2065 23.4954 25.5154C23.4954 25.6612 23.4292 25.8001 23.3004 25.9285C23.1715 26.0569 22.8755 26.1229 22.4159 26.1229H13.4384C12.9508 25.7688 12.3484 25.5606 11.7007 25.5606C10.064 25.5606 8.73372 26.883 8.73372 28.5179C8.73372 30.1527 10.0605 31.4752 11.7007 31.4752C12.3519 31.4752 12.9508 31.2669 13.4384 30.9129H24.958C25.2888 30.9129 25.6266 30.9025 25.9644 30.8851C26.3056 30.8678 26.6469 30.8122 26.9882 30.7185C27.3294 30.6283 27.6568 30.479 27.9702 30.2777C28.2836 30.0764 28.5796 29.7917 28.8547 29.4238C29.297 28.8372 29.5651 28.1951 29.6557 27.4974C29.7462 26.7997 29.7949 26.168 29.7949 25.5987C29.7949 25.269 29.781 24.9115 29.7532 24.5262C29.7253 24.1409 29.6696 23.7522 29.586 23.3565C29.5024 22.9608 29.3701 22.5755 29.1855 22.2006C29.001 21.8258 28.7607 21.4891 28.4682 21.194C28.1199 20.8469 27.6916 20.5623 27.1832 20.3402C26.6782 20.1215 26.2116 19.9549 25.7868 19.8438L19.2678 18.1083C18.8987 18.018 18.5365 17.8966 18.1778 17.7508C17.8192 17.605 17.6381 17.3759 17.6381 17.0635C17.6381 16.824 17.7391 16.6505 17.941 16.5394C17.9968 16.5012 18.0873 16.4734 18.2161 16.4561C18.345 16.4387 18.5922 16.4283 18.9614 16.4283H31.7242V27.848C31.7242 28.2992 31.7625 28.7192 31.8356 29.1079C31.9087 29.5036 32.1664 29.882 32.6087 30.2499C32.9778 30.5623 33.3574 30.7497 33.7544 30.8157C34.1514 30.8816 34.5518 30.9129 34.9558 30.9129H53.353C53.6838 30.9129 54.0216 30.9025 54.3629 30.8851C54.7042 30.8678 55.0454 30.8122 55.3832 30.7185C55.7245 30.6283 56.0518 30.479 56.3652 30.2777C56.6787 30.0764 56.9747 29.7917 57.2498 29.4238C57.692 28.8372 57.9602 28.1951 58.0507 27.4974C58.1412 26.7997 58.19 26.168 58.19 25.5987C58.19 25.269 58.1761 24.9115 58.1482 24.5262C58.1203 24.1409 58.0646 23.7522 57.981 23.3565C57.8975 22.9608 57.7651 22.5755 57.5806 22.2006C57.396 21.8258 57.1557 21.4891 56.8632 21.194C56.515 20.8469 56.0867 20.5623 55.5782 20.3402C55.0733 20.1215 54.6067 19.9549 54.1818 19.8438L47.6629 18.1083C47.2937 18.018 46.9316 17.8966 46.5729 17.7508C46.2142 17.605 46.0331 17.3759 46.0331 17.0635C46.0331 16.824 46.1341 16.6505 46.3361 16.5394C46.3918 16.5012 46.4823 16.4734 46.6112 16.4561C46.74 16.4387 46.9873 16.4283 47.3564 16.4283H60.1192V27.8271C60.1192 28.2853 60.1575 28.7123 60.2306 29.1079C60.3038 29.5036 60.5615 29.882 61.0037 30.2499C61.3729 30.5623 61.7524 30.7497 62.1494 30.8157C62.5464 30.8816 62.9469 30.9129 63.3508 30.9129H77.2732V26.2339H67.8256C67.6237 26.2339 67.4112 26.2305 67.1919 26.2201C66.9725 26.2096 66.7879 26.1333 66.6382 25.9875C66.565 25.932 66.4989 25.8487 66.4432 25.7411C66.3874 25.63 66.3596 25.4738 66.3596 25.2725V23.3912H76.9111V19.2051H66.3596V17.5356C66.3596 17.4071 66.3735 17.251 66.4014 17.067C66.4292 16.883 66.5163 16.7268 66.6625 16.5984C66.7426 16.5325 66.8436 16.4769 66.9585 16.4318H77.1026V16.3207H77.1862V11.6418H44.4278C43.599 11.6418 42.9164 11.7667 42.3836 12.0132C41.8508 12.2596 41.426 12.5408 41.1126 12.8532C40.5415 13.4224 40.1967 14.0541 40.0783 14.7518C39.9599 15.4495 39.8972 16.102 39.8972 16.706C39.8972 17.421 39.9564 18.1638 40.0783 18.9379C40.1967 19.7084 40.4892 20.3957 40.9489 21.0031C41.1509 21.26 41.426 21.5307 41.7777 21.8153C42.1259 22.1 42.5891 22.3152 43.1602 22.4609L50.6472 24.554C50.9606 24.6442 51.2462 24.7518 51.5039 24.8698C51.7616 24.9879 51.8904 25.2065 51.8904 25.5154C51.8904 25.6612 51.8243 25.8001 51.6954 25.9285C51.5666 26.0569 51.2706 26.1229 50.8109 26.1229H37.968M32.0898 39.941C32.6748 39.941 33.1798 39.875 33.6081 39.7362C34.033 39.6008 34.524 39.3405 35.0777 38.9656V36.3936H32.1769V37.6536H33.4305V38.2194C33.1833 38.3617 32.9674 38.4658 32.7793 38.5248C32.5878 38.5838 32.3893 38.6151 32.1804 38.6151C31.7381 38.6151 31.3933 38.4728 31.1496 38.1951C30.9023 37.9139 30.7805 37.4488 30.7805 36.7928C30.7805 36.1784 30.9023 35.7272 31.1461 35.4426C31.3899 35.1579 31.7172 35.0156 32.1281 35.0156C32.4067 35.0156 32.6296 35.0746 32.8107 35.1996C32.9883 35.3211 33.1136 35.4981 33.1902 35.7272L34.9941 35.4044C34.8827 35.0156 34.719 34.6928 34.4996 34.436C34.2802 34.1826 34.0051 33.9951 33.6708 33.8737C33.34 33.7522 32.8385 33.6932 32.1664 33.6932C31.4943 33.6932 30.9163 33.7904 30.5053 33.9847C29.9795 34.2381 29.579 34.6095 29.3074 35.0955C29.0358 35.5849 28.8965 36.1576 28.8965 36.8171C28.8965 37.4453 29.0219 38.0007 29.2691 38.4832C29.5198 38.9691 29.8716 39.3336 30.3243 39.5765C30.777 39.823 31.3655 39.9445 32.0863 39.9445M65.1582 39.8403H67.0735L67.3799 38.8442H69.5041L69.8071 39.8403H71.7711L69.4972 33.7903H67.4426L65.1582 39.8403ZM62.8354 37.1295L60.558 33.7903H58.8064V39.8403H60.5684V36.5186L62.832 39.8403H64.6045V33.7903H62.832V37.1295M55.5678 39.8403H57.4483V33.7903H55.5678V39.8403ZM48.9478 35.2864H50.8631V39.8403H52.7366V35.2864H54.6519V33.7903H48.9478V35.2864ZM46.3535 37.1295L44.076 33.7903H42.3244V39.8403H44.0865V36.5186L46.35 39.8403H48.1225V33.7903H46.35V37.1295M36.1885 39.8403H41.3006V38.4727H38.0725V37.2822H40.9802V36.05H38.0725V35.085H41.2101V33.7938H36.192V39.8438M22.7119 39.8403H24.5923V37.3898H24.756C24.9266 37.3898 25.0799 37.4349 25.2157 37.5286C25.3132 37.6015 25.4281 37.7543 25.5534 37.9938L26.5564 39.8403H28.6771L27.7647 38.0909C27.7195 38.0007 27.6324 37.8757 27.5036 37.7161C27.3712 37.5529 27.2702 37.4453 27.2041 37.3967C27.1031 37.3238 26.9394 37.2475 26.7166 37.1746C26.9951 37.1121 27.2145 37.0323 27.3747 36.9351C27.6289 36.7824 27.8239 36.5845 27.9667 36.3415C28.1095 36.0986 28.1826 35.807 28.1826 35.4738C28.1826 35.0885 28.0886 34.7588 27.9006 34.4915C27.7125 34.2242 27.4653 34.0403 27.1588 33.9396C26.8524 33.8389 26.4101 33.7903 25.832 33.7903H22.7084V39.8403M15.4825 39.8403H17.3978L17.7042 38.8442H19.8285L20.1314 39.8403H22.0955L19.8215 33.7903H17.7669L15.4825 39.8403ZM25.4176 35.0156C25.7624 35.0156 25.9957 35.0677 26.1176 35.1718C26.243 35.2759 26.3056 35.4252 26.3056 35.623C26.3056 35.7549 26.2673 35.873 26.1872 35.9736C26.1106 36.0777 26.0062 36.1402 25.8843 36.1645C25.637 36.2201 25.4734 36.2478 25.3863 36.2478H24.5923V35.0156H25.4176ZM68.4455 35.3592L69.1071 37.5321H67.7804L68.4455 35.3592ZM18.7664 35.3592L19.428 37.5321H18.1012L18.7664 35.3592ZM43.188 0C29.4746 0 15.4651 1.86394 1.55313 5.53974L0 5.94932V42.5686L1.4208 43.0476C15.1203 47.6605 29.0637 50 42.8642 50C56.6647 50 70.6951 47.6605 84.5722 43.051L86 42.5755V5.95626L84.4538 5.53974C70.7787 1.86394 56.8946 0 43.188 0ZM42.5995 19.7327C42.3558 19.4065 42.206 19.0455 42.1399 18.622C42.0354 17.959 41.9866 17.3169 41.9866 16.7095C41.9866 16.2235 42.0354 15.6855 42.1364 15.1059C42.1642 14.9358 42.2443 14.672 42.5891 14.3284C42.6657 14.252 42.8572 14.0923 43.2647 13.9049C43.4074 13.8389 43.7487 13.7279 44.4278 13.7279H75.0968V14.2416H75.0132V14.3527H66.5859L66.2342 14.4811C65.8929 14.606 65.5865 14.7831 65.3218 15.0017L65.3044 15.0156L65.287 15.0295C64.7647 15.4842 64.4338 16.0847 64.3328 16.7581C64.2911 17.0462 64.2702 17.2995 64.2702 17.5321V21.2843H74.8217V21.3051H64.2702V25.269C64.2702 25.8035 64.3677 26.2617 64.5731 26.6678C64.7472 27.0184 64.9771 27.3134 65.2522 27.5495C65.7606 28.0146 66.3944 28.2714 67.1013 28.3027C67.3486 28.3131 67.5923 28.3166 67.8222 28.3166H68.4142L68.2574 28.8303H63.3508C63.0653 28.8303 62.7762 28.8094 62.4977 28.7643C62.4837 28.7574 62.435 28.7331 62.3549 28.6671L62.3479 28.6602L62.3409 28.6532C62.3061 28.6255 62.2783 28.6012 62.2609 28.5804C62.226 28.3513 62.2121 28.1014 62.2121 27.8306V14.3492H47.3599C46.8724 14.3492 46.559 14.3631 46.3222 14.3978C45.9182 14.4568 45.5735 14.5713 45.274 14.7518C44.4417 15.2343 43.9472 16.0951 43.9472 17.067C43.9472 18.2333 44.6332 19.2121 45.7824 19.6807C46.2281 19.8612 46.6843 20.0139 47.144 20.1284L53.649 21.8605C53.9764 21.9472 54.342 22.0757 54.746 22.2527C55.0141 22.3672 55.223 22.5061 55.3902 22.6692C55.5225 22.8011 55.6235 22.9469 55.7071 23.1135C55.815 23.3356 55.8916 23.5543 55.9404 23.7834C56.0031 24.0854 56.0449 24.3839 56.0658 24.6755C56.0901 25.0087 56.1006 25.3211 56.1006 25.6022C56.1006 26.0778 56.0588 26.6262 55.9787 27.2301C55.9334 27.5703 55.8011 27.8792 55.5782 28.1812C55.4111 28.4033 55.2892 28.497 55.23 28.5352C55.0977 28.6185 54.9723 28.6775 54.84 28.7123C54.6415 28.7643 54.443 28.799 54.2515 28.8094C53.952 28.8268 53.649 28.8337 53.3565 28.8337H34.9593C34.6702 28.8337 34.3847 28.8094 34.1061 28.7678C34.0922 28.7608 34.0434 28.7365 33.9633 28.6706L33.9564 28.6637L33.9494 28.6567C33.9146 28.6289 33.8867 28.6046 33.8693 28.5838C33.838 28.3582 33.8205 28.1152 33.8205 27.8514V14.3561H18.9683C18.4808 14.3561 18.1674 14.37 17.9306 14.4047C17.5266 14.4637 17.1819 14.5783 16.8789 14.7588C16.0466 15.2412 15.5522 16.102 15.5522 17.0739C15.5522 18.2402 16.2382 19.219 17.3874 19.6876C17.8331 19.8681 18.2893 20.0208 18.7489 20.1354L25.2505 21.8674C25.5778 21.9542 25.9435 22.0826 26.3474 22.2596C26.6156 22.3742 26.8245 22.513 26.9917 22.6762C27.124 22.8081 27.2285 22.9538 27.3086 23.1204C27.4165 23.3426 27.4931 23.5613 27.5419 23.7904C27.6046 24.0923 27.6463 24.3908 27.6672 24.6824C27.6916 25.0156 27.7021 25.328 27.7021 25.6092C27.7021 26.0847 27.6603 26.6331 27.5802 27.2371C27.5349 27.5772 27.4026 27.8861 27.1797 28.1881C27.0126 28.4103 26.8907 28.504 26.8315 28.5422C26.6991 28.6255 26.5738 28.6845 26.4414 28.7192C26.243 28.7713 26.0445 28.806 25.8529 28.8164C25.5534 28.8337 25.2505 28.8407 24.958 28.8407H18.9649L18.7733 28.2159H22.4159C23.0845 28.2159 24.056 28.1326 24.7769 27.4141C25.2958 26.8969 25.5813 26.227 25.5813 25.5293C25.5813 24.4047 24.9858 23.4571 23.9864 22.992C23.6382 22.8289 23.2516 22.6866 22.8407 22.5651H22.8268L22.8128 22.5581L15.3258 20.4651L15.3049 20.4582L15.284 20.4512C14.9114 20.354 14.7547 20.2499 14.7025 20.2083C14.4169 19.9757 14.2707 19.816 14.2045 19.7362C13.9607 19.4099 13.811 19.0489 13.7448 18.6255C13.6403 17.9625 13.5916 17.3204 13.5916 16.7129C13.5916 16.227 13.6403 15.689 13.7413 15.1093C13.7692 14.9393 13.8493 14.6755 14.194 14.3318C14.2707 14.2555 14.4622 14.0958 14.8696 13.9084C15.0124 13.8424 15.3537 13.7313 16.0327 13.7313H34.7503C35.0289 13.7313 35.311 13.7556 35.5861 13.7973C35.6 13.8042 35.6488 13.8285 35.7254 13.8945L35.7323 13.9014L35.7393 13.9084C35.7741 13.9361 35.802 13.9604 35.8194 13.9813C35.8542 14.2103 35.8716 14.4637 35.8716 14.731V28.2124H50.8039C51.4725 28.2124 52.4441 28.1291 53.165 27.4106C53.6838 26.8934 53.9694 26.2235 53.9694 25.5259C53.9694 24.4012 53.3739 23.4537 52.3745 22.9885C52.0262 22.8254 51.6397 22.6831 51.2288 22.5616H51.2149L51.2009 22.5547L43.7139 20.4616L43.693 20.4547L43.6721 20.4478C43.2995 20.3506 43.1428 20.2464 43.0905 20.2048C42.805 19.9722 42.6587 19.8126 42.5926 19.7327H42.5995ZM11.6972 29.396C11.2132 29.396 10.8196 29.0038 10.8196 28.5213C10.8196 28.0389 11.2132 27.6467 11.6972 27.6467C11.9305 27.6467 12.1046 27.7369 12.2091 27.8133L12.7593 28.209H18.7698L18.5783 28.8337H12.7558L12.2056 29.2294C12.1011 29.3058 11.927 29.3926 11.6937 29.3926L11.6972 29.396ZM68.4838 28.32H75.1804V28.8337H68.6405L68.4838 28.32Z" fill="white"/>
</g>
</g>
</svg>
