<svg width="37" height="26" viewBox="0 0 37 26" fill="none" xmlns="http://www.w3.org/2000/svg">
<path d="M36.2261 4.06067C36.0165 3.27569 35.6041 2.55927 35.03 1.98298C34.456 1.40668 33.7404 0.990659 32.9547 0.776464C30.0702 1.8329e-07 18.5 0 18.5 0C18.5 0 6.92979 1.8329e-07 4.04379 0.776464C3.25838 0.990893 2.5431 1.40701 1.96933 1.9833C1.39556 2.55958 0.983379 3.27587 0.773917 4.06067C0 6.95742 0 13 0 13C0 13 0 19.0426 0.773917 21.9393C0.983514 22.7243 1.39593 23.4407 1.96998 24.017C2.54404 24.5933 3.25964 25.0093 4.04533 25.2235C6.92979 26 18.5 26 18.5 26C18.5 26 30.0702 26 32.9562 25.2235C33.7419 25.0093 34.4575 24.5933 35.0316 24.017C35.6056 23.4407 36.018 22.7243 36.2276 21.9393C37 19.0426 37 13 37 13C37 13 37 6.95742 36.2261 4.06067ZM14.7152 18.486V7.51402L24.3861 13L14.7152 18.486Z" fill="white"/>
</svg>
