<svg width="37" height="38" viewBox="0 0 37 38" fill="none" xmlns="http://www.w3.org/2000/svg">
<path d="M14.0307 37.5789V24.8974H10.2166V19.0699H14.0307V16.5591C14.0307 10.0673 16.8797 7.05905 23.0618 7.05905C23.68 7.05905 24.5341 7.12579 25.325 7.22273C25.9171 7.28701 26.5047 7.39052 27.084 7.53262V12.8166C26.7492 12.7849 26.4134 12.7659 26.0773 12.7594C25.7007 12.7493 25.324 12.7446 24.9472 12.7451C23.8573 12.7451 23.0063 12.8976 22.365 13.2361C21.9345 13.4601 21.5722 13.8021 21.3182 14.2246C20.9204 14.892 20.7416 15.8058 20.7416 17.0088V19.0699H26.7834L26.1883 22.4119L25.7458 24.8974H20.7416V38C29.9022 36.859 37 28.8194 37 19.0699C37 8.53856 28.7166 0 18.5 0C8.28337 0 0 8.53856 0 19.0699C0 28.0137 5.97242 35.5177 14.0307 37.5789Z" fill="white"/>
</svg>
