<svg width="38" height="28" viewBox="0 0 38 28" fill="none" xmlns="http://www.w3.org/2000/svg">
<path d="M38 3.82476V25.4543C38 26.8601 36.841 27.9984 35.4097 27.9984H29.3629V13.5798L19 21.2152L8.63708 13.5798V28H2.59033C2.25003 28 1.91307 27.9341 1.59869 27.8062C1.28431 27.6782 0.998687 27.4907 0.758132 27.2543C0.517576 27.0179 0.326807 26.7372 0.196723 26.4284C0.0666399 26.1196 -0.000207524 25.7886 4.83948e-07 25.4543V3.82476C4.83948e-07 0.678839 3.65592 -1.11728 6.21775 0.770589L8.63708 2.55426L19 10.1866L29.3629 2.55115L31.7823 0.770589C34.3425 -1.11572 38 0.678839 38 3.82476Z" fill="white"/>
</svg>
