<svg width="60" height="56" viewBox="0 0 60 56" fill="none" xmlns="http://www.w3.org/2000/svg">
<path d="M59.0851 25.0075C49.9751 16.9075 40.8651 8.8175 31.7651 0.7275C30.6751 -0.2425 29.2351 -0.2425 28.1451 0.7275C19.0351 8.8175 9.92509 16.9075 0.825085 25.0075C-1.64491 27.2075 1.98509 30.8175 4.44509 28.6275C12.9451 21.0675 21.4551 13.5075 29.9551 5.9575C38.4551 13.5175 46.9651 21.0775 55.4651 28.6275C57.9251 30.8175 61.5651 27.2075 59.0851 25.0075Z" fill="#00408C"/>
<path d="M11.5049 25.9475V30.3875C14.1049 30.3875 16.2549 32.3075 16.6249 34.8075C18.1149 34.9875 19.2749 36.2475 19.2749 37.7775V47.3075C19.2749 48.9675 17.9249 50.3175 16.2649 50.3175H11.5049V55.9975H25.1649V38.6075H34.7249V55.9975H48.3849V25.9475L29.9449 9.5575L11.5049 25.9475Z" fill="#00408C"/>
<path d="M17.1249 46.2075V38.1875C17.1249 36.8975 16.1449 35.8375 14.8949 35.6875C14.5849 33.5875 12.7749 31.9675 10.5849 31.9675C8.39492 31.9675 6.58492 33.5875 6.27492 35.6875C5.02492 35.8375 4.04492 36.8975 4.04492 38.1875V46.2075C4.04492 47.5975 5.18492 48.7375 6.57492 48.7375H14.5849C15.9749 48.7375 17.1149 47.5975 17.1149 46.2075H17.1249ZM10.5849 45.3675H8.17492L9.06492 42.3475C8.64492 41.9475 8.37492 41.3775 8.37492 40.7475C8.37492 39.5275 9.36492 38.5375 10.5849 38.5375C11.8049 38.5375 12.7949 39.5275 12.7949 40.7475C12.7949 41.3775 12.5249 41.9375 12.1049 42.3475L12.9949 45.3675H10.5849ZM10.5849 35.6575H7.42492C7.73492 34.1975 9.03492 33.0975 10.5849 33.0975C12.1349 33.0975 13.4349 34.1975 13.7449 35.6575H10.5849Z" fill="#00408C"/>
</svg>
