<svg width="47" height="41" viewBox="0 0 47 41" fill="none" xmlns="http://www.w3.org/2000/svg">
<path d="M27.8094 12.1554L41.7144 17.2023L46.5528 14.9766C46.724 14.8947 47.0069 14.4704 46.9994 14.2918C46.992 14.1131 46.6942 13.7409 46.4932 13.6665L9.15538 0.089079C7.72618 -0.238446 6.12577 0.342166 5.61215 1.74904L3.00684 8.85038L20.8867 15.3637L27.8094 12.1554Z" fill="#00408C"/>
<path d="M35.202 28.4795L39.2216 17.5L27.9146 13.3613L20.91 16.5546L5.76196 11.0463L3.61816 16.9938L35.202 28.4795Z" fill="#00408C"/>
<path d="M2.76163 40.397C4.34715 40.0471 5.52326 38.536 5.52326 36.9356V31.7324C5.52326 29.9906 4.07918 28.3232 2.31501 28.2115C1.54086 28.1594 0.870919 28.1743 0 28.1818V40.4193C0.841144 40.5533 1.85349 40.5905 2.76163 40.3895V40.397Z" fill="#00408C"/>
<path d="M6.64026 35.8116L15.744 35.8488C16.1906 35.8488 17.1806 35.5585 17.322 35.1863L21.2002 24.6088L18.3939 23.5518L14.9921 32.8341L6.71469 32.8564L6.63281 35.8191L6.64026 35.8116Z" fill="#00408C"/>
<path d="M39.832 19.0856L37.3086 25.9636C39.0132 26.3283 40.5466 25.1597 41.1272 23.8347C41.8791 22.1226 41.5292 20.1724 39.8246 19.0781L39.832 19.0856Z" fill="#00408C"/>
</svg>
