<svg width="44" height="42" viewBox="0 0 44 42" fill="none" xmlns="http://www.w3.org/2000/svg">
<path d="M43.391 18.3651C36.7008 12.4166 30.0106 6.47542 23.3277 0.534263C22.5272 -0.178088 21.4697 -0.178088 20.6693 0.534263C13.979 6.47542 7.28881 12.4166 0.605928 18.3651C-1.208 19.9807 1.45781 22.6318 3.26439 21.0235C9.50664 15.4716 15.7562 9.91967 21.9985 4.37508C28.2407 9.92701 34.4903 15.4789 40.7326 21.0235C42.5392 22.6318 45.2123 19.9807 43.391 18.3651Z" fill="#00408C"/>
<path d="M8.44922 19.0554V22.3161C10.3586 22.3161 11.9375 23.7261 12.2093 25.5621C13.3035 25.6943 14.1554 26.6196 14.1554 27.7432V34.7419C14.1554 35.9609 13.164 36.9523 11.9449 36.9523H8.44922V41.1236H18.4809V28.3527H25.5016V41.1236H35.5332V19.0554L21.9912 7.01892L8.44922 19.0554Z" fill="#00408C"/>
<path d="M12.5764 33.934V28.0443C12.5764 27.0969 11.8567 26.3185 10.9388 26.2083C10.7111 24.6661 9.38186 23.4764 7.77356 23.4764C6.16527 23.4764 4.83603 24.6661 4.60838 26.2083C3.6904 26.3185 2.9707 27.0969 2.9707 28.0443V33.934C2.9707 34.9548 3.8079 35.792 4.82869 35.792H10.7111C11.7319 35.792 12.5691 34.9548 12.5691 33.934H12.5764ZM7.77356 33.3172H6.0037L6.6573 31.0993C6.34886 30.8056 6.15058 30.387 6.15058 29.9243C6.15058 29.0284 6.87762 28.3013 7.77356 28.3013C8.66951 28.3013 9.39655 29.0284 9.39655 29.9243C9.39655 30.387 9.19826 30.7982 8.88982 31.0993L9.54342 33.3172H7.77356ZM7.77356 26.1863H5.45291C5.68057 25.1141 6.63527 24.3063 7.77356 24.3063C8.91186 24.3063 9.86655 25.1141 10.0942 26.1863H7.77356Z" fill="#00408C"/>
</svg>
