<svg width="38" height="54" viewBox="0 0 38 54" fill="none" xmlns="http://www.w3.org/2000/svg">
<path d="M19 0C8.49571 0 0 8.451 0 18.9C0 33.075 19 54 19 54C19 54 38 33.075 38 18.9C38 8.451 29.5043 0 19 0ZM19 25.65C17.2003 25.65 15.4743 24.9388 14.2018 23.673C12.9292 22.4071 12.2143 20.6902 12.2143 18.9C12.2143 17.1098 12.9292 15.3929 14.2018 14.127C15.4743 12.8612 17.2003 12.15 19 12.15C20.7997 12.15 22.5257 12.8612 23.7982 14.127C25.0708 15.3929 25.7857 17.1098 25.7857 18.9C25.7857 20.6902 25.0708 22.4071 23.7982 23.673C22.5257 24.9388 20.7997 25.65 19 25.65Z" fill="#00408C"/>
</svg>
