<svg width="59" height="56" viewBox="0 0 59 56" fill="none" xmlns="http://www.w3.org/2000/svg">
<path d="M34.9099 16.795L52.3652 23.7682L58.439 20.693C58.6539 20.5799 59.009 19.9936 58.9997 19.7468C58.9903 19.5 58.6165 18.9857 58.3642 18.8829L11.4929 0.12308C9.69875 -0.329459 7.68971 0.472768 7.04494 2.41663L3.77441 12.2285L26.2196 21.2278L34.9099 16.795Z" fill="#00408C"/>
<path d="M44.1902 39.3501L49.2361 24.1798L35.042 18.4613L26.249 22.8736L7.23317 15.2627L4.54199 23.4804L44.1902 39.3501Z" fill="#00408C"/>
<path d="M3.46676 55.8162C5.45711 55.3328 6.93353 53.2449 6.93353 51.0337V43.8445C6.93353 41.4378 5.12072 39.1339 2.9061 38.9797C1.93429 38.9077 1.09329 38.9282 0 38.9385V55.847C1.05591 56.0322 2.32675 56.0836 3.46676 55.8059V55.8162Z" fill="#00408C"/>
<path d="M8.33552 49.4809L19.7637 49.5323C20.3243 49.5323 21.5671 49.1312 21.7447 48.6169L26.6131 34.002L23.0903 32.5415L18.8199 45.3669L8.42896 45.3977L8.32617 49.4911L8.33552 49.4809Z" fill="#00408C"/>
<path d="M50.0027 26.3701L46.835 35.8735C48.9748 36.3774 50.8998 34.7627 51.6286 32.932C52.5724 30.5664 52.1332 27.8718 49.9934 26.3599L50.0027 26.3701Z" fill="#00408C"/>
</svg>
